# xmcd
#
# Track frame offsets: 
#        150
#        14970
#        27765
#        42255
#        62945
#        75981
#        86374
#        102704
#        117253
#        133917
#        143875
#        156523
#
# Disc length: 2292 seconds
#
# Revision: 0
# Processed by: cddbd v1.5.2PL0 Copyright (c) Steve Scherf et al.
# Submitted via: ExactAudioCopy v0.99pb3
#
DISCID=a808f20c
DTITLE=Roy Davis and the Dregs - Deadweight
DYEAR=2008
DGENRE=Americana
TTITLE0=Please Go Home
TTITLE1=Deadweight
TTITLE2=Till the Night is Gone
TTITLE3=Get What's Coming
TTITLE4=Further and Further
TTITLE5=Believe You Me
TTITLE6=Lie Like the Snow Falls
TTITLE7=Dear Prison Guard
TTITLE8=Don't Follow Me
TTITLE9=Hardly Holding On
TTITLE10=Come Around
TTITLE11=Just One Day
EXTD=
EXTT0=
EXTT1=
EXTT2=
EXTT3=
EXTT4=
EXTT5=
EXTT6=
EXTT7=
EXTT8=
EXTT9=
EXTT10=
EXTT11=
PLAYORDER=
